<?xml version="1.0" standalone="no"?>
<!DOCTYPE svg PUBLIC "-//W3C//DTD SVG 20010904//EN"
 "http://www.w3.org/TR/2001/REC-SVG-20010904/DTD/svg10.dtd">
<svg version="1.0" xmlns="http://www.w3.org/2000/svg"
 width="254.000000pt" height="254.000000pt" viewBox="0 0 254.000000 254.000000"
 preserveAspectRatio="xMidYMid meet">

<g transform="translate(0.000000,254.000000) scale(0.100000,-0.100000)"
fill="#000000" stroke="none">
<path d="M85 2448 c-3 -13 -4 -549 -3 -1193 l3 -1170 1170 -3 c644 -1 1180 0
1193 3 l22 5 0 1176 c0 1005 -2 1177 -14 1190 -13 12 -185 14 -1190 14 l-1176
0 -5 -22z m775 -388 l0 -380 -380 0 -380 0 0 380 0 380 380 0 380 0 0 -380z
m790 0 l0 -380 -380 0 -380 0 0 380 0 380 380 0 380 0 0 -380z m790 0 l0 -380
-380 0 -380 0 0 380 0 380 380 0 380 0 0 -380z m-1580 -790 l0 -380 -380 0
-380 0 0 380 0 380 380 0 380 0 0 -380z m790 0 l0 -380 -380 0 -380 0 0 380 0
380 380 0 380 0 0 -380z m790 0 l0 -380 -380 0 -380 0 0 380 0 380 380 0 380
0 0 -380z m-1580 -790 l0 -380 -380 0 -380 0 0 380 0 380 380 0 380 0 0 -380z
m790 0 l0 -380 -380 0 -380 0 0 380 0 380 380 0 380 0 0 -380z m790 0 l0 -380
-380 0 -380 0 0 380 0 380 380 0 380 0 0 -380z"/>
<path d="M1162 2372 c-229 -82 -295 -377 -123 -549 69 -69 120 -88 231 -88
111 0 167 21 235 90 69 68 90 124 90 235 0 83 -4 101 -27 145 -34 65 -101 129
-163 156 -70 31 -174 35 -243 11z"/>
<path d="M1948 1585 c-95 -36 -172 -116 -205 -211 -22 -65 -14 -185 15 -246
31 -63 95 -126 162 -157 46 -22 69 -26 140 -26 73 0 93 4 141 28 66 32 132 99
162 165 31 68 31 198 -1 267 -29 63 -93 129 -157 163 -62 32 -196 41 -257 17z"/>
<path d="M401 805 c-67 -19 -104 -41 -158 -97 -63 -64 -87 -126 -88 -223 0
-71 4 -88 33 -147 37 -76 82 -120 162 -157 45 -21 69 -26 135 -25 107 0 167
27 239 105 65 70 91 136 90 230 -3 209 -213 369 -413 314z"/>
<path d="M1192 804 c-72 -19 -107 -39 -156 -87 -143 -144 -123 -381 41 -501
218 -159 523 -1 523 269 0 158 -102 284 -259 321 -69 17 -82 16 -149 -2z"/>
<path d="M1992 810 c-106 -22 -204 -107 -243 -209 -17 -45 -20 -71 -17 -136 6
-98 34 -161 103 -224 69 -64 124 -85 221 -86 73 0 87 3 149 35 124 63 192 180
183 314 -5 84 -53 182 -113 231 -77 64 -192 94 -283 75z"/>
</g>
</svg>
